<?xml version="1.0" encoding="UTF-8"?><svg id="Layer_1" xmlns="http://www.w3.org/2000/svg" width="67.3" height="61.5" viewBox="0 0 67.3 61.5"><defs><style>.cls-1{fill:#fff;}</style></defs><path class="cls-1" d="M45.8,7.91c5,0,9.22,3.29,10.64,7.82h.13c1.09,2.83,3.08,9.24,1.49,17.07-2.54,12.43-12.17,18.82-14.11,20.06,2.72-4.8,5.53-11.75,5.2-20.06-.04-1.05-.13-2.06-.26-3.04-.98,.28-2.01,.44-3.08,.44-6.15,0-11.14-4.99-11.14-11.14s4.99-11.14,11.14-11.14Z"/><path class="cls-1" d="M19.8,8.65c5,0,9.22,3.29,10.64,7.82h.13c1.09,2.83,3.08,9.24,1.49,17.07-2.54,12.43-12.17,18.82-14.11,20.06,2.72-4.8,5.53-11.75,5.2-20.06-.04-1.05-.13-2.06-.26-3.04-.98,.28-2.01,.44-3.08,.44-6.15,0-11.14-4.99-11.14-11.14s4.99-11.14,11.14-11.14Z"/></svg>