<?xml version="1.0" encoding="UTF-8"?><svg id="Layer_1" xmlns="http://www.w3.org/2000/svg" width="197.21" height="157.19" viewBox="0 0 197.21 157.19"><defs><style>.cls-1{fill:none;stroke:#fff;stroke-miterlimit:10;stroke-width:2px;}</style></defs><g id="Layer_2-2"><polyline class="cls-1" points="152.28 73.89 178 81.47 177.51 83.35 118.21 65.24"/><path class="cls-1" d="M74.52,51.88L19.9,34.53,1.21,106.11l54.56,17.12c3.11,2.45,8.53,5.86,16,7.22,5.41,.82,6.29,.53,8.6,.52"/><g><line class="cls-1" x1="61.96" y1="27.46" x2="61.45" y2="30.88"/><g><g><polyline class="cls-1" points="173.35 42.01 194.71 48.63 185.13 54.06 181.94 53.08 27.39 5.84 41.12 1.05 151.45 35.23"/><path class="cls-1" d="M27.39,5.84L1.21,106.11l54.79,17.34c-22.77-19.44-13.36-68.09,28.2-59.78,34.42,8.99,34.96,63.74-4.32,67.34,11.45,3.62,22.9,7.24,34.35,10.87,.29,0,.53,.09,.71,.23,14.56,4.61,29.12,9.22,43.68,13.82l26.5-101.86L27.39,5.84Z"/><polyline class="cls-1" points="158.63 155.92 168.15 147.92 194.71 48.63"/><path class="cls-1" d="M151.45,35.23c2.02-2.97,10.21-.07,11.78,.14,3.96,1.07,7.9,2.33,9.74,4.65,1.15,2.73-1.08,6.13-2.58,7.35-1.35,.67-3.02-.15-4.93-.42-2.96-.74-5.21-1.51-8.34-2.54-1.65-.54-4.01-1.34-6.42-2.91-1.38-1.57,.19-5.17,.75-6.27h0Z"/><path class="cls-1" d="M152.28,34.39c4.97,6.23,16.41,7.5,21,6.27"/><path class="cls-1" d="M86.82,129.76c25.84-.52,38.16-28.92,30.01-50.57-13.3-29.95-50.7-29.95-64.79-6.62"/><path class="cls-1" d="M88.07,129.41c11.8-.18,22.62-14.83,23.53-18.83,13.6-37.69-23.78-57.25-46.38-46.36"/><path class="cls-1" d="M105.52,123.17c17.99-18.57,15.36-46.77-5.72-59.75-14.39-9.67-35.91-5.81-47.18,8.49,1.42-5.89,17.98-20.53,26.22-21.48,28.31-5.77,49.45,17.43,48.83,44.07,.05,20.62-21.26,38.23-41.12,35.35"/><path class="cls-1" d="M63.12,93.59c-1.84,18.18,20.39,23.14,27.13,10.74,9.96-21.56-22.92-32.92-27.13-10.74Z"/><path class="cls-1" d="M75.85,106.39c13.37,.72,16.72-15.5,5.35-19.47-14.74-5.6-20.05,17.33-5.35,19.47Z"/><path class="cls-1" d="M79.6,86.34c-15.54,2.79-12.43,20.69,1.98,19.11"/><polyline class="cls-1" points="116.32 62.84 152.28 73.89 158.63 48.63 27.39 9.6 22.13 32.94 77.62 50.95"/><path class="cls-1" d="M45.24,90.35c-4.21,51.07,70.11,50.09,60.1-.55-9.98-31.96-54.85-30.94-60.1,.55h0Z"/><path class="cls-1" d="M71.52,125.81c40.03,6.46,42.27-57.74-.41-56.81-33.31,5.89-29.01,52.77,.41,56.81Z"/><path class="cls-1" d="M101.39,108c3.73-25.15-24.84-51.66-48.15-28.26"/><path class="cls-1" d="M159.63,50.37l-3.86,15.65,22.85,7.87,4.01-16.11c-5.52-1.78-17.41-5.61-23-7.41h0Z"/><polygon class="cls-1" points="171.93 59.36 180.26 61.63 181.08 57.92 172.75 55.47 171.93 59.36"/><polygon class="cls-1" points="158.63 59.06 156.96 65.19 177.83 72.34 179.58 65.7 158.63 59.06"/></g><path class="cls-1" d="M42.2,21.67c-4.84-4.9-7.27,4.53-.63,2.7"/><polyline class="cls-1" points="43.67 25.64 44.85 21.88 46.15 26.24 49.33 23.44 48.76 26.87"/><path class="cls-1" d="M55.96,25.64l-4.13-.99c-.16,.81-.49,2.44-.66,3.25l3.86,1.16"/><line class="cls-1" x1="54.53" y1="26.87" x2="51.5" y2="26.3"/><line class="cls-1" x1="57.52" y1="29.89" x2="58.25" y2="26.38"/><line class="cls-1" x1="57.92" y1="28.23" x2="61.69" y2="29.17"/><polyline class="cls-1" points="63.39 31.27 66.78 28.7 67.62 32.49"/><path class="cls-1" d="M67.27,30.72l-2.26-.63"/><path class="cls-1" d="M38.39,27.85c-.37-1.01-1.91-.96-2.05,.07-.01,.35,.64,.3,1.24,.95,1.51,1.5-1.7,2.59-2.14,.67"/><polyline class="cls-1" points="42.66 32.06 43.95 29.51 44.23 32.33 46.34 30.14 45.99 32.94"/><path class="cls-1" d="M53.4,32.21l-2.22-.46-.58,2.84,2.05,.51"/><polyline class="cls-1" points="57.05 36.71 57.89 33.77 59.26 37.25 60.03 34.52"/><polyline class="cls-1" points="64.06 38.93 66.14 36.44 66.45 39.67"/><line class="cls-1" x1="64.98" y1="37.83" x2="66.32" y2="38.27"/><line class="cls-1" x1="52.65" y1="33.53" x2="50.88" y2="33.2"/></g></g></g></svg>