<?xml version="1.0" encoding="UTF-8"?><svg id="Layer_1" xmlns="http://www.w3.org/2000/svg" width="132.38" height="206.63" viewBox="0 0 132.38 206.63"><defs><style>.cls-1{fill:none;stroke:#fff;stroke-miterlimit:10;stroke-width:2px;}</style></defs><g id="Layer_2-2"><g id="Layer_1-2"><g><path class="cls-1" d="M76.19,66.06c-1.76-.27-4.44-.94-6.89-2.87-3.23-2.54-4.68-6.18-5.93-12.43-3.51-17.62,.14-28.45,.38-39.79,.01-.48,.03-1.62,.56-2.96,1.38-3.49,5-5.24,7.46-6.12,6.66-.58,12.29-.78,16.51-.86,14.35-.24,21.86,.95,29.85,1.1,.21,0,.8,.02,1.59,.12,1.06,.14,4.58,.75,7.22,3.3,1.19,1.15,2.03,2.54,2.69,4.28,4.03,10.71-.26,31.71,.12,42.2,.02,.63,.15,3.68-1.1,7.22-1.16,3.27-2.7,4.69-3.06,5.02,0,0-1.87,1.67-4.89,2.32-4.48,.98-21.54,.85-44.52-.55h0Z"/><path class="cls-1" d="M68.86,9.18c1.5-1.94,4.3-1.86,8.39-1.89,8.75-.07,28.65-.7,40.43,1.13,.69,.11,2.16,.35,3.52,1.42,2.21,1.74,2.72,4.53,2.94,5.87,1.36,8.35,1.35,16.37,1.35,25.32,0,0,.56,8.25-1.35,15.9-.17,.69-.56,2.03-1.71,3.06-1.07,.96-2.31,1.22-3.06,1.35-9.77,1.62-21.16,1.22-21.16,1.22-10.5-.28-13.65,.25-21.29-1.1-1-.18-2.29-.01-3.67-.73-2.28-1.19-3.31-3.63-3.79-4.89-2.7-7.04-3.01-17.22-2.01-31.62,0-.09,.01-.19,.01-.2,.76-11.09,.08-13.11,1.41-14.83h0Z"/><path class="cls-1" d="M75.71,65.97l2.18,12.11v14.1c0,.31,.25,.57,.56,.58l39.4,1.33c.29,0,.54-.22,.55-.51l.71-14.34,1.6-12.64"/><polyline class="cls-1" points="76.9 66.1 78.82 77.79 117.9 79.36 119.54 66.8"/><polyline class="cls-1" points="78.88 66.21 79.89 74.36 116.69 75.54 117.87 66.97"/><path class="cls-1" d="M93.81,17.04c-4.38,1.54-8.1,5.64-8.53,10.77-.43,5.13,2.89,8.83,3.84,9.82,1.86,1.92,3.82,2.78,4.57,3.08,.34,.14,8.66,3.3,14.25-2.24,4.12-4.08,4.35-10.39,2.02-14.92-2.96-5.75-10.07-8.65-16.16-6.51Z"/><line class="cls-1" x1="70.91" y1="58.65" x2="89.13" y2="37.63"/><line class="cls-1" x1="122.35" y1="11.02" x2="108.17" y2="20.92"/><line class="cls-1" x1="121.57" y1="60.61" x2="107.95" y2="38.47"/><line class="cls-1" x1="68.86" y1="9.18" x2="88.2" y2="20.92"/><path class="cls-1" d="M112,93.9v2.35l-2.8,5.35h-22.52c-.3,0-.54-.24-.54-.54v-2.13c0-.19,.04-.38,.11-.56l2.2-5.27"/><path class="cls-1" d="M87.53,95.3h-7.35c-.26,0-.5,.15-.61,.4l-3.81,8.66c-.04,.08-.06,.17-.06,.27v8.76c0,.45,.13,.9,.38,1.28h0c.51,.78,1.37,1.27,2.31,1.29l41.33,.98c.27,0,.52-.16,.63-.41l2.74-6.71c.03-.08,.05-.16,.05-.25v-11.54c0-.78-.62-1.42-1.4-1.45l-9.74-.32"/><path class="cls-1" d="M75.71,109.54l43.44,1.17c.56,.02,1.07-.3,1.32-.79l2.68-5.47"/><path class="cls-1" d="M123.14,109.33l1.6,1.27c.08,.06,.13,.16,.14,.27l1.02,21.14c0,.1-.03,.19-.09,.26l-2.55,2.87s-1.28-17.4-1.28-17.4c-.01-.15-.1-.28-.24-.35l-1.73-.8"/><path class="cls-1" d="M73.92,116.23v-3.91h0l1.79-7.7h0s-19.59-.72-19.59-.72h0l-8.41,7.44h0l26.26,.95"/><path class="cls-1" d="M47.66,111.29l.29,25.18c0,.16,.13,.29,.29,.3l25.52,.96c.09,0,.16-.07,.16-.15v-2.74"/><polygon class="cls-1" points="52.73 113.9 52.73 129.45 69.57 130.13 69.57 114.58 52.73 113.9"/><path class="cls-1" d="M62.09,116.01c-.81,.5-1.38,1.47-1.28,2.49,.13,1.38,1.45,2.29,2.64,2.42,.98,.1,2.34-.27,2.87-1.44,.55-1.2-.09-2.55-.98-3.25-.87-.67-2.19-.89-3.25-.23h0Z"/><path class="cls-1" d="M53.26,106.43l-19.82-.31c-.11,0-.22,.05-.29,.14l-.57,.74c.42,.14,1.02,.34,1.73,.63,2.24,.9,2.55,1.38,2.68,1.63,.34,.66,.18,1.37,.1,1.68-.61,2.65-6.54,4.05-7.96,4.35-.17,.04-.28,.18-.28,.35v6.31c0,.2-.17,.37-.37,.36l-26.36-.66c-.2,0-.35-.17-.35-.36v-1.02c0-.06,.01-.11,.04-.17l3.53-6.87c.06-.12,.19-.2,.32-.2h.99c.2,0,.36,.16,.36,.37-.02,1.33-.03,2.67-.05,4,0,.12,.05,.24,.16,.31,.68,.44,1.65,1,2.89,1.47,.94,.35,2.09,.67,5.88,.94,3.91,.28,6.5,.45,9.97-.1,.75-.12,1.38-.25,1.87-.36,.17-.04,.28-.18,.28-.35v-4.12c0-.13,.07-.25,.18-.31,.22-.12,.52-.27,.87-.42,.84-.35,1.44-.45,2.15-.63,0,0,.02,0,.02,0,.76-2.36,1-3.08,1.76-5.44-.03-.04-.07-.08-.1-.12-1.58-1.74-3.65-2.29-5.2-2.62,0,0-7.86-1.69-15.71-.1-.35,.07-.67,.15-.67,.15-1.55,.38-2.78,.9-3.65,1.33-.11,.06-.18,.17-.19,.3l-.47,6.71"/><path class="cls-1" d="M11.01,106.68c-.8,.22-1.55,.67-2.02,1.36-3.67,5.32,17.92,5.29,21.28,3.01,3.92-2.66-2.8-4.41-4.16-4.56-1.43-.34-10.55-1.08-15.1,.19h0Z"/><line class="cls-1" x1="28.85" y1="115.97" x2="47.7" y2="116.23"/><path class="cls-1" d="M47.92,133.63l-19.08-.4v-.7l-26.67-1.14c-.23,0-.41-.2-.41-.43v-9.67"/><line class="cls-1" x1="28.85" y1="121.95" x2="28.85" y2="132.53"/><path class="cls-1" d="M1.76,130.96v56.81c0,.16-.07,.31-.19,.41l-.47,.48c-.03,1.78-.06,2.72-.11,4.05-.03,.75,.22,1.49,.69,2.07h0c.28,.35,.7,.56,1.14,.58,2.31,.13,4.62,.26,6.93,.38,.18,0,.34,.1,.43,.25,.18,.29,.45,.65,.86,.99,.45,.38,.9,.59,1.22,.71l.18,.03,14.63,.27c.11,.01,.42,.04,.76-.14,.19-.1,.32-.23,.4-.34s.2-.17,.34-.17l8.82,.12c.22,.19,.54,.48,.95,.82,3.08,2.58,5.92,4.13,6.92,4.63,8.01,4.03,16.39,2.35,16.39,2.35,2.99-.6,8-2.19,12.36-6.53,7.35-7.32,7.11-16.75,7.06-18.01-.33-8-4.63-13.25-5.99-14.87-4.9-5.81-10.98-7.77-13.65-8.43-1.99-.49-9.85-2.2-18.08,2-1.73,.88-6.13,3.2-9.43,8.32-4.58,7.11-3.72,14.42-3.44,16.31,1.2,7.98,6.2,12.72,7.69,14.08"/><path class="cls-1" d="M74.01,198.76h49.84c.78,0,1.42-.63,1.42-1.41l.53-65.08"/><path class="cls-1" d="M33.99,151.81c-.36,.07-1.39,.33-2.04,1.24-.95,1.31-.71,3.39,.62,4.53,1.14,.98,3.01,1.22,4.27,.18,1.39-1.15,1.36-3.31,.36-4.62-1.12-1.46-3.04-1.34-3.2-1.33h0Z"/><path class="cls-1" d="M79.04,191.27c3.81-7.09,4.28-14.85,1.46-21.52-2.88-6.84-8.1-10.86-9.95-11.98-1.99-1.2-9-4.85-17.53-3.6-3.63,.53-6.34,1.82-7.66,2.53-3.86,2.07-8.82,7.47-10.31,9.49l7.58-16.45"/><path class="cls-1" d="M49.45,162.64c-6.95,3.45-8.84,10.47-9.16,11.74-.45,1.8-1.56,7.46,1.68,13.16,.44,.78,4.78,8.11,13.42,8.77,9.84,.76,15.5-7.89,15.74-8.25,3.63-5.75,3.46-12.89,.39-18.32-.53-.94-4.31-7.36-12-8.64-4.75-.79-8.53,.79-10.06,1.55h0Z"/><path class="cls-1" d="M54.98,157.52c-5.87,.24-10.02,2.78-11.49,3.71-1.8,1.13-7.09,4.57-9.63,11.49-3.47,9.46,1.02,17.74,1.61,18.77,4.74,8.4,13.17,10.66,15.93,11.24,2.08,.43,10.63,2.09,18.53-3.46,.76-.53,9.38-6.81,9.63-17.91,.18-8-4.1-13.45-5.31-14.95-.56-.69-7.83-9.36-19.27-8.89h0Z"/><line class="cls-1" x1="82.66" y1="182.07" x2="80.06" y2="189.16"/><path class="cls-1" d="M86.57,168.3l-4.27,14.84c1.03-3.69,1.57-20.87-5.02-26.98-2.47-2.29-8.71-8.12-18.01-8.41-5.22-.17-9.38,1.44-11.22,2.26-4.32,1.94-6.8,4.25-8.32,5.92"/><path class="cls-1" d="M42.62,149.73c1.79-2.02,5.11-5.86,11.28-7.74,8.44-2.57,18.51-.68,25.37,5.94,3.08,2.97,5.02,6.11,6.22,9.07,.25,.63,.72,1.78,1.08,3.33,1.03,4.37,.79,5.21-.04,8.11"/><path class="cls-1" d="M77.32,194.62l43.8,.58c.64,0,1.17-.5,1.18-1.15l.96-58.92h-49.03c-.17,0-.3-.13-.3-.3v-18.6c0-.17,.14-.3,.3-.3l4.03,.02"/><line class="cls-1" x1="34" y1="193.26" x2="1" y2="192.71"/><line class="cls-1" x1="27.51" y1="192.98" x2="28.85" y2="133.23"/><line class="cls-1" x1="93.77" y1="135.13" x2="93.07" y2="194.83"/><path class="cls-1" d="M39.74,179.08c-.35-.03-.71-.11-1.05-.27-1.21-.56-1.62-1.75-2.35-1.62-.55,.1-.58,.81-1.18,1.32-.45,.38-1.2,.64-2.57,.38"/><path class="cls-1" d="M73.77,180.02c.31-.18,.57-.35,.78-.51,.65-.48,.91-.84,1.39-.82,.34,.02,.68,.3,1.35,.86,.72,.61,.76,.77,1.11,.94,.26,.13,.63,.23,1.17,.17"/></g></g></g></svg>